HIERARCHY
ROOT Hips
{
	OFFSET 0.000000 0.000000 0.000000
	CHANNELS 6 Xposition Yposition Zposition Zrotation Yrotation Xrotation 
	JOINT LHipJoint
	{
		OFFSET 0.000000 0.000000 0.000000
		CHANNELS 3 Zrotation Yrotation Xrotation
		JOINT LeftUpLeg
		{
			OFFSET 1.363060 -1.794630 0.839290
			CHANNELS 3 Zrotation Yrotation Xrotation
			JOINT LeftLeg
			{
				OFFSET 2.448110 -6.726130 0.000000
				CHANNELS 3 Zrotation Yrotation Xrotation
				JOINT LeftFoot
				{
					OFFSET 2.562200 -7.039590 0.000000
					CHANNELS 3 Zrotation Yrotation Xrotation
					JOINT LeftToeBase
					{
						OFFSET 0.157640 -0.433110 2.322550
						CHANNELS 3 Zrotation Yrotation Xrotation
						End Site
						{
							OFFSET 0.000000 0.000000 0.000000
						}
					}
				}
			}
		}
	}
	JOINT RHipJoint
	{
		OFFSET 0.000000 0.000000 0.000000
		CHANNELS 3 Zrotation Yrotation Xrotation
		JOINT RightUpLeg
		{
			OFFSET -1.305520 -1.794630 0.839290
			CHANNELS 3 Zrotation Yrotation Xrotation
			JOINT RightLeg
			{
				OFFSET -2.542530 -6.985550 0.000000
				CHANNELS 3 Zrotation Yrotation Xrotation
				JOINT RightFoot
				{
					OFFSET -2.568260 -7.056230 0.000000
					CHANNELS 3 Zrotation Yrotation Xrotation
					JOINT RightToeBase
					{
						OFFSET -0.164730 -0.452590 2.363150
						CHANNELS 3 Zrotation Yrotation Xrotation
						End Site
						{
							OFFSET 0.000000 0.000000 0.000000
						}
					}
				}
			}
		}
	}
	JOINT LowerBack
	{
		OFFSET 0.000000 0.000000 0.000000
		CHANNELS 3 Zrotation Yrotation Xrotation
		JOINT Spine
		{
			OFFSET 0.028270 2.035590 -0.193380
			CHANNELS 3 Zrotation Yrotation Xrotation
			JOINT Spine1
			{
				OFFSET 0.056720 2.048850 -0.042750
				CHANNELS 3 Zrotation Yrotation Xrotation
				JOINT Neck
				{
					OFFSET 0.000000 0.000000 0.000000
					CHANNELS 3 Zrotation Yrotation Xrotation
					JOINT Neck1
					{
						OFFSET -0.054170 1.746240 0.172020
						CHANNELS 3 Zrotation Yrotation Xrotation
						JOINT Head
						{
							OFFSET 0.104070 1.761360 -0.123970
							CHANNELS 3 Zrotation Yrotation Xrotation
							End Site
							{
								OFFSET 0.000000 0.000000 0.000000
							}
						}
					}
				}
				JOINT LeftShoulder
				{
					OFFSET 0.000000 0.000000 0.000000
					CHANNELS 3 Zrotation Yrotation Xrotation
					JOINT LeftArm
					{
						OFFSET 3.362410 1.200890 -0.311210
						CHANNELS 3 Zrotation Yrotation Xrotation
						JOINT LeftForeArm
						{
							OFFSET 4.983000 -0.000000 -0.000000
							CHANNELS 3 Zrotation Yrotation Xrotation
							JOINT LeftHand
							{
								OFFSET 3.483560 -0.000000 -0.000000
								CHANNELS 3 Zrotation Yrotation Xrotation
								JOINT LeftFingerBase
								{
									OFFSET 0.000000 0.000000 0.000000
									CHANNELS 3 Zrotation Yrotation Xrotation
									JOINT LeftHandIndex1
									{
										OFFSET 0.715260 -0.000000 -0.000000
										CHANNELS 3 Zrotation Yrotation Xrotation
										End Site
										{
											OFFSET 0.000000 0.000000 0.000000
										}
									}
								}
								JOINT LThumb
								{
									OFFSET 0.000000 0.000000 0.000000
									CHANNELS 3 Zrotation Yrotation Xrotation
									End Site
									{
										OFFSET 0.000000 0.000000 0.000000
									}
								}
							}
						}
					}
				}
				JOINT RightShoulder
				{
					OFFSET 0.000000 0.000000 0.000000
					CHANNELS 3 Zrotation Yrotation Xrotation
					JOINT RightArm
					{
						OFFSET -3.136600 1.374050 -0.404650
						CHANNELS 3 Zrotation Yrotation Xrotation
						JOINT RightForeArm
						{
							OFFSET -5.241900 -0.000000 -0.000000
							CHANNELS 3 Zrotation Yrotation Xrotation
							JOINT RightHand
							{
								OFFSET -3.444170 -0.000000 -0.000000
								CHANNELS 3 Zrotation Yrotation Xrotation
								JOINT RightFingerBase
								{
									OFFSET 0.000000 0.000000 0.000000
									CHANNELS 3 Zrotation Yrotation Xrotation
									JOINT RightHandIndex1
									{
										OFFSET -0.622530 -0.000000 -0.000000
										CHANNELS 3 Zrotation Yrotation Xrotation
										End Site
										{
											OFFSET 0.000000 0.000000 0.000000
										}
									}
								}
								JOINT RThumb
								{
									OFFSET 0.000000 0.000000 0.000000
									CHANNELS 3 Zrotation Yrotation Xrotation
									End Site
									{
										OFFSET 0.000000 0.000000 0.000000
									}
								}
							}
						}
					}
				}
			}
		}
	}
}
MOTION
Frames: 5
Frame Time: 0.008333
0.050533 17.448508 17.261005 -5.611930 -2.944818 2.350525 0.400852 0.692587 -0.039659 -8.011921 -12.866685 -30.252886 -0.634982 6.340575 16.621369 -2.108137 10.080241 1.596418 0.099500 -2.034200 -5.600200 -2.150082 -2.675795 1.308416 32.481574 3.069484 12.759366 -0.058029 -3.365774 13.295238 0.932008 -5.267441 -4.947918 -0.115400 2.189900 -6.030800 6.374849 3.001949 5.239155 1.257149 3.914030 -1.400817 0.274379 2.513904 -1.964965 -7.716186 -3.250043 -12.927197 4.232943 -3.259003 12.137951 3.156600 -1.895500 9.158000 -7.571864 3.293825 -2.367784 -84.367700 8.203364 13.075196 9.345868 -18.073828 -1.658956 -1.084092 -3.577281 11.992209 13.301869 24.772451 6.630800 -7.125000 0.000000 0.000000 -19.050800 58.202600 -6.301700 5.723054 -1.944583 -2.091286 78.484354 6.370485 17.867186 -17.036441 25.335453 -5.246447 0.769327 -0.169837 2.578350 -11.649951 9.443962 -2.094800 7.125000 0.000000 0.000000 10.370300 -20.272600 6.236400
0.057382 17.437800 17.351726 -5.651441 -2.918657 2.239099 0.408249 0.697903 -0.028040 -8.200079 -12.638236 -30.236613 -0.600434 6.446984 16.947907 -1.990964 9.682910 1.654295 0.095940 -1.997428 -5.498600 -2.165329 -2.676928 1.300934 32.522828 2.962732 13.077490 -0.087922 -3.444905 13.534668 0.940531 -5.301733 -4.951613 -0.167156 2.604324 -7.180655 6.405374 3.015347 5.355448 1.276046 3.943953 -1.371610 0.290436 2.527081 -1.935819 -7.740912 -3.286877 -13.030618 4.245185 -3.295233 12.122749 3.159841 -1.911229 9.178724 -7.590848 3.295994 -2.339857 -84.452477 8.034910 12.587141 9.152822 -17.726719 -1.619105 -1.203105 -3.319820 12.494680 13.903789 22.423493 6.386312 -7.125000 0.000000 0.000000 -16.821392 55.868297 -4.692520 5.727656 -1.945177 -2.098780 78.469370 6.393521 17.737625 -17.134809 25.463973 -5.301824 0.775272 -0.176941 2.355823 -11.688680 9.601720 -2.139011 7.125000 0.000000 0.000000 10.332094 -20.102452 6.252660
0.064346 17.427123 17.442871 -5.696442 -2.899548 2.127312 0.415476 0.703430 -0.016274 -8.371887 -12.426636 -30.209000 -0.565517 6.552971 17.274594 -1.868957 9.269160 1.721177 0.090961 -1.943743 -5.350312 -2.180973 -2.677870 1.293119 32.570253 2.861986 13.391467 -0.119422 -3.528997 13.788067 0.948392 -5.334689 -4.962568 -0.215216 2.985854 -8.239430 6.439249 3.030992 5.463060 1.296109 3.976093 -1.341037 0.309605 2.541412 -1.899720 -7.768622 -3.322398 -13.127266 4.261736 -3.329549 12.102272 3.165932 -1.925734 9.195111 -7.608517 3.299112 -2.312561 -84.541589 7.873372 12.109883 8.968640 -17.393251 -1.577652 -1.309752 -3.090405 12.990178 14.422794 20.343314 6.162867 -7.125000 0.000000 0.000000 -14.863101 53.797512 -3.270670 5.731659 -1.946283 -2.105735 78.454366 6.416043 17.606877 -17.236024 25.596315 -5.358933 0.781383 -0.181911 2.157890 -11.733768 9.734949 -2.178502 7.125000 0.000000 0.000000 10.290367 -19.959141 6.260391
0.072174 17.416687 17.537179 -5.782440 -2.933093 2.012834 0.421437 0.710521 -0.003408 -8.421611 -12.340832 -30.096711 -0.527836 6.655805 17.602393 -1.710858 8.732818 1.855293 0.075392 -1.763764 -4.853418 -2.199585 -2.677391 1.282816 32.663753 2.806085 13.674480 -0.162928 -3.650138 14.145776 0.951308 -5.357667 -5.027730 -0.235674 3.121782 -8.618145 6.498133 3.063415 5.505858 1.324871 4.024793 -1.300265 0.352011 2.564366 -1.811705 -7.818616 -3.348118 -13.173340 4.310451 -3.349574 12.042412 3.193298 -1.931101 9.179116 -7.616368 3.309325 -2.289973 -84.663067 7.763462 11.713234 8.850642 -17.161637 -1.524232 -1.324061 -3.070400 13.433609 14.322694 20.270023 6.096551 -7.125000 0.000000 0.000000 -14.929152 53.694318 -3.247555 5.731183 -1.951215 -2.108660 78.439217 6.434731 17.467263 -17.358490 25.757194 -5.428982 0.788733 -0.170951 2.143600 -11.826339 9.685019 -2.182753 7.125000 0.000000 0.000000 10.222350 -20.016211 6.204437
0.080630 17.406507 17.631809 -5.809043 -2.996403 1.902058 0.425678 0.718408 0.009829 -8.525141 -12.259994 -29.973363 -0.490452 6.757845 17.932264 -1.552740 8.193217 1.980144 0.065546 -1.650840 -4.541632 -2.215578 -2.677777 1.272260 32.680584 2.758288 13.943585 -0.209307 -3.779245 14.525787 0.947100 -5.351452 -5.088670 -0.256509 3.257495 -8.996509 6.492564 3.110904 5.531043 1.346114 4.087615 -1.255068 0.409719 2.594520 -1.706450 -7.867157 -3.377381 -13.214434 4.348748 -3.374413 11.982669 3.214489 -1.939468 9.160586 -7.623322 3.319037 -2.267672 -84.790324 7.645110 11.374413 8.746205 -16.951877 -1.469384 -1.328045 -3.086918 13.854461 14.156605 20.532480 6.078348 -7.125000 0.000000 0.000000 -15.272972 53.933199 -3.431603 5.731023 -1.956973 -2.109882 78.428609 6.465827 17.274996 -17.471846 25.906102 -5.494046 0.793242 -0.159469 2.191959 -11.898209 9.613681 -2.177803 7.125000 0.000000 0.000000 10.171818 -20.097093 6.153918
